<mxfile host="app.diagrams.net" agent="Mozilla/5.0 (Windows NT 10.0; Win64; x64) AppleWebKit/537.36 (KHTML, like Gecko) Chrome/128.0.0.0 YaBrowser/24.10.0.0 Safari/537.36" version="24.8.4">
  <diagram name="Страница — 1" id="hj7CFw5oaHOUqpzhWUgJ">
    <mxGraphModel dx="2300" dy="1339" grid="1" gridSize="10" guides="1" tooltips="1" connect="1" arrows="1" fold="1" page="1" pageScale="1" pageWidth="827" pageHeight="583" math="0" shadow="0">
      <root>
        <mxCell id="0" />
        <mxCell id="1" parent="0" />
        <mxCell id="tyJL5RVhGpzJcOc0of-g-132" value="" style="rounded=0;whiteSpace=wrap;html=1;" vertex="1" parent="1">
          <mxGeometry x="220" y="-80" width="550" height="80" as="geometry" />
        </mxCell>
        <mxCell id="tyJL5RVhGpzJcOc0of-g-4" style="edgeStyle=orthogonalEdgeStyle;rounded=0;orthogonalLoop=1;jettySize=auto;html=1;exitX=0;exitY=0.5;exitDx=0;exitDy=0;entryX=0;entryY=0.5;entryDx=0;entryDy=0;" edge="1" parent="1" source="tyJL5RVhGpzJcOc0of-g-1" target="tyJL5RVhGpzJcOc0of-g-2">
          <mxGeometry relative="1" as="geometry">
            <Array as="points">
              <mxPoint x="-20" y="70" />
              <mxPoint x="-20" y="290" />
            </Array>
          </mxGeometry>
        </mxCell>
        <mxCell id="tyJL5RVhGpzJcOc0of-g-5" value="Пишет" style="edgeLabel;html=1;align=center;verticalAlign=middle;resizable=0;points=[];" vertex="1" connectable="0" parent="tyJL5RVhGpzJcOc0of-g-4">
          <mxGeometry x="-0.1257" y="-1" relative="1" as="geometry">
            <mxPoint y="19" as="offset" />
          </mxGeometry>
        </mxCell>
        <mxCell id="tyJL5RVhGpzJcOc0of-g-18" style="edgeStyle=orthogonalEdgeStyle;rounded=0;orthogonalLoop=1;jettySize=auto;html=1;exitX=0.5;exitY=1;exitDx=0;exitDy=0;entryX=0.5;entryY=0;entryDx=0;entryDy=0;" edge="1" parent="1" source="tyJL5RVhGpzJcOc0of-g-1" target="tyJL5RVhGpzJcOc0of-g-17">
          <mxGeometry relative="1" as="geometry" />
        </mxCell>
        <mxCell id="tyJL5RVhGpzJcOc0of-g-26" value="Состоит" style="edgeLabel;html=1;align=center;verticalAlign=middle;resizable=0;points=[];" vertex="1" connectable="0" parent="tyJL5RVhGpzJcOc0of-g-18">
          <mxGeometry x="-0.224" y="-2" relative="1" as="geometry">
            <mxPoint as="offset" />
          </mxGeometry>
        </mxCell>
        <mxCell id="tyJL5RVhGpzJcOc0of-g-27" style="edgeStyle=orthogonalEdgeStyle;rounded=0;orthogonalLoop=1;jettySize=auto;html=1;exitX=1;exitY=0.5;exitDx=0;exitDy=0;entryX=1;entryY=0.5;entryDx=0;entryDy=0;" edge="1" parent="1" source="tyJL5RVhGpzJcOc0of-g-1" target="tyJL5RVhGpzJcOc0of-g-3">
          <mxGeometry relative="1" as="geometry">
            <Array as="points">
              <mxPoint x="150" y="55" />
              <mxPoint x="230" y="55" />
              <mxPoint x="230" y="400" />
            </Array>
          </mxGeometry>
        </mxCell>
        <mxCell id="tyJL5RVhGpzJcOc0of-g-28" value="Отправляет" style="edgeLabel;html=1;align=center;verticalAlign=middle;resizable=0;points=[];" vertex="1" connectable="0" parent="tyJL5RVhGpzJcOc0of-g-27">
          <mxGeometry x="-0.0754" y="4" relative="1" as="geometry">
            <mxPoint x="-4" y="22" as="offset" />
          </mxGeometry>
        </mxCell>
        <mxCell id="tyJL5RVhGpzJcOc0of-g-29" style="edgeStyle=orthogonalEdgeStyle;rounded=0;orthogonalLoop=1;jettySize=auto;html=1;exitX=1;exitY=0.75;exitDx=0;exitDy=0;entryX=1;entryY=0.5;entryDx=0;entryDy=0;" edge="1" parent="1" source="tyJL5RVhGpzJcOc0of-g-1" target="tyJL5RVhGpzJcOc0of-g-2">
          <mxGeometry relative="1" as="geometry">
            <Array as="points">
              <mxPoint x="190" y="85" />
              <mxPoint x="190" y="290" />
            </Array>
          </mxGeometry>
        </mxCell>
        <mxCell id="tyJL5RVhGpzJcOc0of-g-30" value="Отправляет" style="edgeLabel;html=1;align=center;verticalAlign=middle;resizable=0;points=[];" vertex="1" connectable="0" parent="tyJL5RVhGpzJcOc0of-g-29">
          <mxGeometry x="0.0274" y="-3" relative="1" as="geometry">
            <mxPoint y="-11" as="offset" />
          </mxGeometry>
        </mxCell>
        <mxCell id="tyJL5RVhGpzJcOc0of-g-1" value="User" style="rounded=0;whiteSpace=wrap;html=1;" vertex="1" parent="1">
          <mxGeometry x="30" y="40" width="120" height="60" as="geometry" />
        </mxCell>
        <mxCell id="tyJL5RVhGpzJcOc0of-g-6" style="edgeStyle=orthogonalEdgeStyle;rounded=0;orthogonalLoop=1;jettySize=auto;html=1;exitX=0.5;exitY=1;exitDx=0;exitDy=0;entryX=0.5;entryY=0;entryDx=0;entryDy=0;" edge="1" parent="1" source="tyJL5RVhGpzJcOc0of-g-2" target="tyJL5RVhGpzJcOc0of-g-3">
          <mxGeometry relative="1" as="geometry">
            <mxPoint x="89.5" y="248" as="sourcePoint" />
            <mxPoint x="89.5" y="310" as="targetPoint" />
          </mxGeometry>
        </mxCell>
        <mxCell id="tyJL5RVhGpzJcOc0of-g-7" value="Содержит" style="edgeLabel;html=1;align=center;verticalAlign=middle;resizable=0;points=[];" vertex="1" connectable="0" parent="tyJL5RVhGpzJcOc0of-g-6">
          <mxGeometry x="-0.1545" y="1" relative="1" as="geometry">
            <mxPoint as="offset" />
          </mxGeometry>
        </mxCell>
        <mxCell id="tyJL5RVhGpzJcOc0of-g-2" value="Сообщение" style="rounded=0;whiteSpace=wrap;html=1;" vertex="1" parent="1">
          <mxGeometry x="30" y="260" width="120" height="60" as="geometry" />
        </mxCell>
        <mxCell id="tyJL5RVhGpzJcOc0of-g-3" value="Стикер" style="rounded=0;whiteSpace=wrap;html=1;" vertex="1" parent="1">
          <mxGeometry x="30" y="370" width="120" height="60" as="geometry" />
        </mxCell>
        <mxCell id="tyJL5RVhGpzJcOc0of-g-10" value="User" style="rounded=0;whiteSpace=wrap;html=1;" vertex="1" parent="1">
          <mxGeometry x="310" y="40" width="120" height="60" as="geometry" />
        </mxCell>
        <mxCell id="tyJL5RVhGpzJcOc0of-g-11" value="Сообщение" style="rounded=0;whiteSpace=wrap;html=1;" vertex="1" parent="1">
          <mxGeometry x="650" y="40" width="120" height="60" as="geometry" />
        </mxCell>
        <mxCell id="tyJL5RVhGpzJcOc0of-g-12" value="Стикер" style="rounded=0;whiteSpace=wrap;html=1;" vertex="1" parent="1">
          <mxGeometry x="820" y="40" width="120" height="60" as="geometry" />
        </mxCell>
        <mxCell id="tyJL5RVhGpzJcOc0of-g-13" value="&lt;pre style=&quot;line-height: 120%;&quot;&gt;&lt;font face=&quot;Helvetica&quot;&gt;1. Имя&lt;br&gt;&lt;span style=&quot;background-color: initial;&quot;&gt;2. Фамилия&lt;br&gt;&lt;/span&gt;3. Дата рождения&lt;br&gt;&lt;span style=&quot;background-color: initial;&quot;&gt;4. &lt;/span&gt;&lt;/font&gt;&lt;font face=&quot;Helvetica&quot;&gt;Город проживания&lt;/font&gt;&lt;font face=&quot;Helvetica&quot;&gt;&lt;span style=&quot;background-color: initial;&quot;&gt;&lt;br&gt;&lt;/span&gt;&lt;/font&gt;&lt;font face=&quot;Helvetica&quot;&gt;5. Мессенджер&lt;br&gt;&lt;span style=&quot;background-color: initial;&quot;&gt;6. Друзья&lt;/span&gt;&lt;/font&gt;&lt;/pre&gt;&lt;pre style=&quot;line-height: 120%;&quot;&gt;&lt;br&gt;&lt;/pre&gt;&lt;p&gt;&lt;/p&gt;" style="text;html=1;align=left;verticalAlign=middle;whiteSpace=wrap;rounded=0;spacingLeft=1;" vertex="1" parent="1">
          <mxGeometry x="310" y="100" width="120" height="130" as="geometry" />
        </mxCell>
        <mxCell id="tyJL5RVhGpzJcOc0of-g-14" value="1. Получатель&lt;div&gt;2.&amp;nbsp;Отправитель&lt;/div&gt;&lt;div&gt;3. Тип содержимого&lt;br&gt;&lt;/div&gt;&lt;div&gt;4. Время отправки&lt;br&gt;&lt;/div&gt;&lt;div&gt;5. Статус&lt;br&gt;&lt;/div&gt;" style="text;html=1;align=left;verticalAlign=middle;whiteSpace=wrap;rounded=0;spacingLeft=1;" vertex="1" parent="1">
          <mxGeometry x="650" y="100" width="120" height="90" as="geometry" />
        </mxCell>
        <mxCell id="tyJL5RVhGpzJcOc0of-g-19" style="edgeStyle=orthogonalEdgeStyle;rounded=0;orthogonalLoop=1;jettySize=auto;html=1;exitX=0.5;exitY=1;exitDx=0;exitDy=0;" edge="1" parent="1" source="tyJL5RVhGpzJcOc0of-g-17" target="tyJL5RVhGpzJcOc0of-g-2">
          <mxGeometry relative="1" as="geometry" />
        </mxCell>
        <mxCell id="tyJL5RVhGpzJcOc0of-g-25" value="Содержит" style="edgeLabel;html=1;align=center;verticalAlign=middle;resizable=0;points=[];" vertex="1" connectable="0" parent="tyJL5RVhGpzJcOc0of-g-19">
          <mxGeometry x="-0.184" y="1" relative="1" as="geometry">
            <mxPoint x="-1" as="offset" />
          </mxGeometry>
        </mxCell>
        <mxCell id="tyJL5RVhGpzJcOc0of-g-17" value="Чат" style="rounded=0;whiteSpace=wrap;html=1;" vertex="1" parent="1">
          <mxGeometry x="30" y="150" width="120" height="60" as="geometry" />
        </mxCell>
        <mxCell id="tyJL5RVhGpzJcOc0of-g-20" value="Чат" style="rounded=0;whiteSpace=wrap;html=1;" vertex="1" parent="1">
          <mxGeometry x="480" y="40" width="120" height="60" as="geometry" />
        </mxCell>
        <mxCell id="tyJL5RVhGpzJcOc0of-g-21" value="1. Название чата&lt;div&gt;2. Участники&lt;br&gt;&lt;/div&gt;&lt;div&gt;&lt;br&gt;&lt;/div&gt;&lt;div&gt;&lt;br&gt;&lt;/div&gt;" style="text;html=1;align=left;verticalAlign=middle;whiteSpace=wrap;rounded=0;spacingLeft=1;" vertex="1" parent="1">
          <mxGeometry x="480" y="100" width="120" height="70" as="geometry" />
        </mxCell>
        <mxCell id="tyJL5RVhGpzJcOc0of-g-24" value="&lt;div&gt;1. URL&lt;br&gt;&lt;/div&gt;&lt;div&gt;2. Категория/тэги&lt;br&gt;&lt;/div&gt;&lt;div&gt;3. Автор&lt;/div&gt;" style="text;html=1;align=left;verticalAlign=middle;whiteSpace=wrap;rounded=0;spacingLeft=1;" vertex="1" parent="1">
          <mxGeometry x="820" y="100" width="120" height="60" as="geometry" />
        </mxCell>
        <mxCell id="tyJL5RVhGpzJcOc0of-g-36" value="Родительская сущность" style="rounded=0;whiteSpace=wrap;html=1;fontStyle=1" vertex="1" parent="1">
          <mxGeometry x="310" y="230" width="210" height="30" as="geometry" />
        </mxCell>
        <mxCell id="tyJL5RVhGpzJcOc0of-g-39" value="Атрибут" style="rounded=0;whiteSpace=wrap;html=1;fontStyle=1" vertex="1" parent="1">
          <mxGeometry x="520" y="230" width="210" height="30" as="geometry" />
        </mxCell>
        <mxCell id="tyJL5RVhGpzJcOc0of-g-40" value="Описание" style="rounded=0;whiteSpace=wrap;html=1;fontStyle=1" vertex="1" parent="1">
          <mxGeometry x="730" y="230" width="210" height="30" as="geometry" />
        </mxCell>
        <mxCell id="tyJL5RVhGpzJcOc0of-g-41" value="User" style="rounded=0;whiteSpace=wrap;html=1;" vertex="1" parent="1">
          <mxGeometry x="310" y="260" width="210" height="30" as="geometry" />
        </mxCell>
        <mxCell id="tyJL5RVhGpzJcOc0of-g-42" value="---" style="rounded=0;whiteSpace=wrap;html=1;" vertex="1" parent="1">
          <mxGeometry x="520" y="260" width="210" height="30" as="geometry" />
        </mxCell>
        <mxCell id="tyJL5RVhGpzJcOc0of-g-43" value="Объект пользователя" style="rounded=0;whiteSpace=wrap;html=1;" vertex="1" parent="1">
          <mxGeometry x="730" y="260" width="210" height="30" as="geometry" />
        </mxCell>
        <mxCell id="tyJL5RVhGpzJcOc0of-g-44" value="" style="rounded=0;whiteSpace=wrap;html=1;" vertex="1" parent="1">
          <mxGeometry x="310" y="290" width="210" height="30" as="geometry" />
        </mxCell>
        <mxCell id="tyJL5RVhGpzJcOc0of-g-45" value="Имя" style="rounded=0;whiteSpace=wrap;html=1;" vertex="1" parent="1">
          <mxGeometry x="520" y="290" width="210" height="30" as="geometry" />
        </mxCell>
        <mxCell id="tyJL5RVhGpzJcOc0of-g-46" value="" style="rounded=0;whiteSpace=wrap;html=1;" vertex="1" parent="1">
          <mxGeometry x="730" y="290" width="210" height="30" as="geometry" />
        </mxCell>
        <mxCell id="tyJL5RVhGpzJcOc0of-g-47" value="" style="rounded=0;whiteSpace=wrap;html=1;" vertex="1" parent="1">
          <mxGeometry x="310" y="320" width="210" height="30" as="geometry" />
        </mxCell>
        <mxCell id="tyJL5RVhGpzJcOc0of-g-48" value="Фамилия" style="rounded=0;whiteSpace=wrap;html=1;" vertex="1" parent="1">
          <mxGeometry x="520" y="320" width="210" height="30" as="geometry" />
        </mxCell>
        <mxCell id="tyJL5RVhGpzJcOc0of-g-49" value="" style="rounded=0;whiteSpace=wrap;html=1;" vertex="1" parent="1">
          <mxGeometry x="730" y="320" width="210" height="30" as="geometry" />
        </mxCell>
        <mxCell id="tyJL5RVhGpzJcOc0of-g-50" value="Дата рождения" style="rounded=0;whiteSpace=wrap;html=1;" vertex="1" parent="1">
          <mxGeometry x="520" y="350" width="210" height="30" as="geometry" />
        </mxCell>
        <mxCell id="tyJL5RVhGpzJcOc0of-g-51" value="Мессенджер" style="rounded=0;whiteSpace=wrap;html=1;" vertex="1" parent="1">
          <mxGeometry x="520" y="410" width="210" height="30" as="geometry" />
        </mxCell>
        <mxCell id="tyJL5RVhGpzJcOc0of-g-52" value="Город проживания" style="rounded=0;whiteSpace=wrap;html=1;" vertex="1" parent="1">
          <mxGeometry x="520" y="380" width="210" height="30" as="geometry" />
        </mxCell>
        <mxCell id="tyJL5RVhGpzJcOc0of-g-54" value="Друзья" style="rounded=0;whiteSpace=wrap;html=1;" vertex="1" parent="1">
          <mxGeometry x="520" y="440" width="210" height="30" as="geometry" />
        </mxCell>
        <mxCell id="tyJL5RVhGpzJcOc0of-g-55" value="В формате дд.мм.гггг" style="rounded=0;whiteSpace=wrap;html=1;" vertex="1" parent="1">
          <mxGeometry x="730" y="350" width="210" height="30" as="geometry" />
        </mxCell>
        <mxCell id="tyJL5RVhGpzJcOc0of-g-56" value="" style="rounded=0;whiteSpace=wrap;html=1;" vertex="1" parent="1">
          <mxGeometry x="730" y="380" width="210" height="30" as="geometry" />
        </mxCell>
        <mxCell id="tyJL5RVhGpzJcOc0of-g-57" value="" style="rounded=0;whiteSpace=wrap;html=1;" vertex="1" parent="1">
          <mxGeometry x="730" y="410" width="210" height="30" as="geometry" />
        </mxCell>
        <mxCell id="tyJL5RVhGpzJcOc0of-g-58" value="" style="rounded=0;whiteSpace=wrap;html=1;" vertex="1" parent="1">
          <mxGeometry x="730" y="440" width="210" height="30" as="geometry" />
        </mxCell>
        <mxCell id="tyJL5RVhGpzJcOc0of-g-59" value="" style="rounded=0;whiteSpace=wrap;html=1;" vertex="1" parent="1">
          <mxGeometry x="310" y="350" width="210" height="30" as="geometry" />
        </mxCell>
        <mxCell id="tyJL5RVhGpzJcOc0of-g-60" value="" style="rounded=0;whiteSpace=wrap;html=1;" vertex="1" parent="1">
          <mxGeometry x="310" y="380" width="210" height="30" as="geometry" />
        </mxCell>
        <mxCell id="tyJL5RVhGpzJcOc0of-g-61" value="" style="rounded=0;whiteSpace=wrap;html=1;" vertex="1" parent="1">
          <mxGeometry x="310" y="410" width="210" height="30" as="geometry" />
        </mxCell>
        <mxCell id="tyJL5RVhGpzJcOc0of-g-62" value="" style="rounded=0;whiteSpace=wrap;html=1;" vertex="1" parent="1">
          <mxGeometry x="310" y="440" width="210" height="30" as="geometry" />
        </mxCell>
        <mxCell id="tyJL5RVhGpzJcOc0of-g-63" value="Дочерняя сущность" style="rounded=0;whiteSpace=wrap;html=1;fontStyle=1" vertex="1" parent="1">
          <mxGeometry x="310" y="520" width="210" height="30" as="geometry" />
        </mxCell>
        <mxCell id="tyJL5RVhGpzJcOc0of-g-64" value="Атрибут" style="rounded=0;whiteSpace=wrap;html=1;fontStyle=1" vertex="1" parent="1">
          <mxGeometry x="520" y="520" width="210" height="30" as="geometry" />
        </mxCell>
        <mxCell id="tyJL5RVhGpzJcOc0of-g-65" value="Описание" style="rounded=0;whiteSpace=wrap;html=1;fontStyle=1" vertex="1" parent="1">
          <mxGeometry x="730" y="520" width="210" height="30" as="geometry" />
        </mxCell>
        <mxCell id="tyJL5RVhGpzJcOc0of-g-66" value="---" style="rounded=0;whiteSpace=wrap;html=1;" vertex="1" parent="1">
          <mxGeometry x="520" y="550" width="210" height="30" as="geometry" />
        </mxCell>
        <mxCell id="tyJL5RVhGpzJcOc0of-g-67" value="Название чата" style="rounded=0;whiteSpace=wrap;html=1;" vertex="1" parent="1">
          <mxGeometry x="520" y="580" width="210" height="30" as="geometry" />
        </mxCell>
        <mxCell id="tyJL5RVhGpzJcOc0of-g-68" value="Участники" style="rounded=0;whiteSpace=wrap;html=1;" vertex="1" parent="1">
          <mxGeometry x="520" y="610" width="210" height="30" as="geometry" />
        </mxCell>
        <mxCell id="tyJL5RVhGpzJcOc0of-g-70" value="Чат" style="rounded=0;whiteSpace=wrap;html=1;" vertex="1" parent="1">
          <mxGeometry x="310" y="550" width="210" height="30" as="geometry" />
        </mxCell>
        <mxCell id="tyJL5RVhGpzJcOc0of-g-71" value="" style="rounded=0;whiteSpace=wrap;html=1;" vertex="1" parent="1">
          <mxGeometry x="310" y="580" width="210" height="30" as="geometry" />
        </mxCell>
        <mxCell id="tyJL5RVhGpzJcOc0of-g-72" value="" style="rounded=0;whiteSpace=wrap;html=1;" vertex="1" parent="1">
          <mxGeometry x="310" y="610" width="210" height="30" as="geometry" />
        </mxCell>
        <mxCell id="tyJL5RVhGpzJcOc0of-g-73" value="Объект чата" style="rounded=0;whiteSpace=wrap;html=1;" vertex="1" parent="1">
          <mxGeometry x="730" y="550" width="210" height="30" as="geometry" />
        </mxCell>
        <mxCell id="tyJL5RVhGpzJcOc0of-g-74" value="&amp;nbsp;Если это групповой чат" style="rounded=0;whiteSpace=wrap;html=1;" vertex="1" parent="1">
          <mxGeometry x="730" y="580" width="210" height="30" as="geometry" />
        </mxCell>
        <mxCell id="tyJL5RVhGpzJcOc0of-g-75" value="Список пользователей, состоящих в чате" style="rounded=0;whiteSpace=wrap;html=1;" vertex="1" parent="1">
          <mxGeometry x="730" y="610" width="210" height="30" as="geometry" />
        </mxCell>
        <mxCell id="tyJL5RVhGpzJcOc0of-g-80" value="Дочерняя сущность" style="rounded=0;whiteSpace=wrap;html=1;fontStyle=1" vertex="1" parent="1">
          <mxGeometry x="310" y="690" width="210" height="30" as="geometry" />
        </mxCell>
        <mxCell id="tyJL5RVhGpzJcOc0of-g-81" value="Атрибут" style="rounded=0;whiteSpace=wrap;html=1;fontStyle=1" vertex="1" parent="1">
          <mxGeometry x="520" y="690" width="210" height="30" as="geometry" />
        </mxCell>
        <mxCell id="tyJL5RVhGpzJcOc0of-g-82" value="Описание" style="rounded=0;whiteSpace=wrap;html=1;fontStyle=1" vertex="1" parent="1">
          <mxGeometry x="730" y="690" width="210" height="30" as="geometry" />
        </mxCell>
        <mxCell id="tyJL5RVhGpzJcOc0of-g-83" value="---" style="rounded=0;whiteSpace=wrap;html=1;" vertex="1" parent="1">
          <mxGeometry x="520" y="720" width="210" height="30" as="geometry" />
        </mxCell>
        <mxCell id="tyJL5RVhGpzJcOc0of-g-84" value="Сообщение" style="rounded=0;whiteSpace=wrap;html=1;" vertex="1" parent="1">
          <mxGeometry x="310" y="720" width="210" height="30" as="geometry" />
        </mxCell>
        <mxCell id="tyJL5RVhGpzJcOc0of-g-85" value="Объект сообщения" style="rounded=0;whiteSpace=wrap;html=1;" vertex="1" parent="1">
          <mxGeometry x="730" y="720" width="210" height="30" as="geometry" />
        </mxCell>
        <mxCell id="tyJL5RVhGpzJcOc0of-g-86" value="Получатель" style="rounded=0;whiteSpace=wrap;html=1;" vertex="1" parent="1">
          <mxGeometry x="520" y="750" width="210" height="30" as="geometry" />
        </mxCell>
        <mxCell id="tyJL5RVhGpzJcOc0of-g-87" value="Отправитель" style="rounded=0;whiteSpace=wrap;html=1;" vertex="1" parent="1">
          <mxGeometry x="520" y="780" width="210" height="30" as="geometry" />
        </mxCell>
        <mxCell id="tyJL5RVhGpzJcOc0of-g-88" value="Тип содержимого" style="rounded=0;whiteSpace=wrap;html=1;" vertex="1" parent="1">
          <mxGeometry x="520" y="810" width="210" height="30" as="geometry" />
        </mxCell>
        <mxCell id="tyJL5RVhGpzJcOc0of-g-89" value="Время отправки" style="rounded=0;whiteSpace=wrap;html=1;" vertex="1" parent="1">
          <mxGeometry x="520" y="840" width="210" height="30" as="geometry" />
        </mxCell>
        <mxCell id="tyJL5RVhGpzJcOc0of-g-90" value="Статус" style="rounded=0;whiteSpace=wrap;html=1;" vertex="1" parent="1">
          <mxGeometry x="520" y="870" width="210" height="30" as="geometry" />
        </mxCell>
        <mxCell id="tyJL5RVhGpzJcOc0of-g-91" value="User" style="rounded=0;whiteSpace=wrap;html=1;" vertex="1" parent="1">
          <mxGeometry x="730" y="780" width="210" height="30" as="geometry" />
        </mxCell>
        <mxCell id="tyJL5RVhGpzJcOc0of-g-92" value="Конкретный пользователь, User (если это личный чат), групповой чат" style="rounded=0;whiteSpace=wrap;html=1;" vertex="1" parent="1">
          <mxGeometry x="730" y="750" width="210" height="30" as="geometry" />
        </mxCell>
        <mxCell id="tyJL5RVhGpzJcOc0of-g-93" value="Текст, стикер, изображение и т.д." style="rounded=0;whiteSpace=wrap;html=1;" vertex="1" parent="1">
          <mxGeometry x="730" y="810" width="210" height="30" as="geometry" />
        </mxCell>
        <mxCell id="tyJL5RVhGpzJcOc0of-g-95" value="В виде чч:мм" style="rounded=0;whiteSpace=wrap;html=1;" vertex="1" parent="1">
          <mxGeometry x="730" y="840" width="210" height="30" as="geometry" />
        </mxCell>
        <mxCell id="tyJL5RVhGpzJcOc0of-g-97" value="Статус сообщения (отправлено, доставлено, прочитано)" style="rounded=0;whiteSpace=wrap;html=1;" vertex="1" parent="1">
          <mxGeometry x="730" y="870" width="210" height="30" as="geometry" />
        </mxCell>
        <mxCell id="tyJL5RVhGpzJcOc0of-g-98" value="" style="rounded=0;whiteSpace=wrap;html=1;" vertex="1" parent="1">
          <mxGeometry x="310" y="750" width="210" height="30" as="geometry" />
        </mxCell>
        <mxCell id="tyJL5RVhGpzJcOc0of-g-99" value="" style="rounded=0;whiteSpace=wrap;html=1;" vertex="1" parent="1">
          <mxGeometry x="310" y="780" width="210" height="30" as="geometry" />
        </mxCell>
        <mxCell id="tyJL5RVhGpzJcOc0of-g-100" value="" style="rounded=0;whiteSpace=wrap;html=1;" vertex="1" parent="1">
          <mxGeometry x="310" y="810" width="210" height="30" as="geometry" />
        </mxCell>
        <mxCell id="tyJL5RVhGpzJcOc0of-g-101" value="" style="rounded=0;whiteSpace=wrap;html=1;" vertex="1" parent="1">
          <mxGeometry x="310" y="840" width="210" height="30" as="geometry" />
        </mxCell>
        <mxCell id="tyJL5RVhGpzJcOc0of-g-102" value="" style="rounded=0;whiteSpace=wrap;html=1;" vertex="1" parent="1">
          <mxGeometry x="310" y="870" width="210" height="30" as="geometry" />
        </mxCell>
        <mxCell id="tyJL5RVhGpzJcOc0of-g-103" value="Дочерняя сущность" style="rounded=0;whiteSpace=wrap;html=1;fontStyle=1" vertex="1" parent="1">
          <mxGeometry x="310" y="950" width="210" height="30" as="geometry" />
        </mxCell>
        <mxCell id="tyJL5RVhGpzJcOc0of-g-104" value="Атрибут" style="rounded=0;whiteSpace=wrap;html=1;fontStyle=1" vertex="1" parent="1">
          <mxGeometry x="520" y="950" width="210" height="30" as="geometry" />
        </mxCell>
        <mxCell id="tyJL5RVhGpzJcOc0of-g-105" value="Описание" style="rounded=0;whiteSpace=wrap;html=1;fontStyle=1" vertex="1" parent="1">
          <mxGeometry x="730" y="950" width="210" height="30" as="geometry" />
        </mxCell>
        <mxCell id="tyJL5RVhGpzJcOc0of-g-106" value="---" style="rounded=0;whiteSpace=wrap;html=1;" vertex="1" parent="1">
          <mxGeometry x="520" y="980" width="210" height="30" as="geometry" />
        </mxCell>
        <mxCell id="tyJL5RVhGpzJcOc0of-g-107" value="Стикер" style="rounded=0;whiteSpace=wrap;html=1;" vertex="1" parent="1">
          <mxGeometry x="310" y="980" width="210" height="30" as="geometry" />
        </mxCell>
        <mxCell id="tyJL5RVhGpzJcOc0of-g-108" value="Объект стикера" style="rounded=0;whiteSpace=wrap;html=1;" vertex="1" parent="1">
          <mxGeometry x="730" y="980" width="210" height="30" as="geometry" />
        </mxCell>
        <mxCell id="tyJL5RVhGpzJcOc0of-g-116" value="URL" style="rounded=0;whiteSpace=wrap;html=1;" vertex="1" parent="1">
          <mxGeometry x="520" y="1010" width="210" height="30" as="geometry" />
        </mxCell>
        <mxCell id="tyJL5RVhGpzJcOc0of-g-118" value="Категория/тэги" style="rounded=0;whiteSpace=wrap;html=1;" vertex="1" parent="1">
          <mxGeometry x="520" y="1040" width="210" height="50" as="geometry" />
        </mxCell>
        <mxCell id="tyJL5RVhGpzJcOc0of-g-119" value="Автор" style="rounded=0;whiteSpace=wrap;html=1;" vertex="1" parent="1">
          <mxGeometry x="520" y="1090" width="210" height="30" as="geometry" />
        </mxCell>
        <mxCell id="tyJL5RVhGpzJcOc0of-g-121" value="Путь к изображению стикера" style="rounded=0;whiteSpace=wrap;html=1;" vertex="1" parent="1">
          <mxGeometry x="730" y="1010" width="210" height="30" as="geometry" />
        </mxCell>
        <mxCell id="tyJL5RVhGpzJcOc0of-g-122" value="Данные&amp;nbsp;для удобства поиска и рекомендаций (например, &quot;смешные&quot;, &quot;животные&quot;)" style="rounded=0;whiteSpace=wrap;html=1;" vertex="1" parent="1">
          <mxGeometry x="730" y="1040" width="210" height="50" as="geometry" />
        </mxCell>
        <mxCell id="tyJL5RVhGpzJcOc0of-g-123" value="Поле указывает владельца стикера" style="rounded=0;whiteSpace=wrap;html=1;" vertex="1" parent="1">
          <mxGeometry x="730" y="1090" width="210" height="30" as="geometry" />
        </mxCell>
        <mxCell id="tyJL5RVhGpzJcOc0of-g-125" value="" style="rounded=0;whiteSpace=wrap;html=1;" vertex="1" parent="1">
          <mxGeometry x="310" y="1010" width="210" height="30" as="geometry" />
        </mxCell>
        <mxCell id="tyJL5RVhGpzJcOc0of-g-126" value="" style="rounded=0;whiteSpace=wrap;html=1;" vertex="1" parent="1">
          <mxGeometry x="310" y="1040" width="210" height="50" as="geometry" />
        </mxCell>
        <mxCell id="tyJL5RVhGpzJcOc0of-g-127" value="" style="rounded=0;whiteSpace=wrap;html=1;" vertex="1" parent="1">
          <mxGeometry x="310" y="1090" width="210" height="30" as="geometry" />
        </mxCell>
        <mxCell id="tyJL5RVhGpzJcOc0of-g-130" value="&lt;font style=&quot;font-size: 14px;&quot;&gt;&lt;b&gt;User:&lt;/b&gt; &lt;b&gt;Родительская сущность&lt;/b&gt;&amp;nbsp;для чатов и сообщений&lt;/font&gt;&lt;div&gt;&lt;font style=&quot;font-size: 14px;&quot;&gt;&lt;br style=&quot;padding: 0px; margin: 0px;&quot;&gt;&lt;b&gt;Чат: Дочерняя сущность&lt;/b&gt;&amp;nbsp;для пользователя, но &lt;b&gt;родительская&lt;/b&gt;&amp;nbsp;для сообщений&lt;/font&gt;&lt;/div&gt;&lt;div&gt;&lt;font style=&quot;font-size: 14px;&quot;&gt;&lt;br style=&quot;padding: 0px; margin: 0px;&quot;&gt;&lt;b&gt;Сообщение: Дочерняя сущность&lt;/b&gt;&amp;nbsp;для пользователя и чатов. Также &lt;b&gt;родительская&lt;/b&gt;&amp;nbsp;для стикеров, если сообщение содержит стикер&lt;/font&gt;&lt;/div&gt;&lt;div&gt;&lt;font style=&quot;font-size: 14px;&quot;&gt;&lt;br&gt;&lt;/font&gt;&lt;/div&gt;&lt;div&gt;&lt;font style=&quot;font-size: 14px;&quot;&gt;&lt;b&gt;Стикер: Дочерняя сущность&lt;/b&gt;&amp;nbsp;для сообщений&lt;/font&gt;&lt;/div&gt;" style="rounded=0;whiteSpace=wrap;html=1;align=left;spacingLeft=5;" vertex="1" parent="1">
          <mxGeometry x="-20" y="460" width="260" height="250" as="geometry" />
        </mxCell>
        <mxCell id="tyJL5RVhGpzJcOc0of-g-131" value="&lt;strong style=&quot;box-sizing: border-box; font-weight: var(--base-text-weight-semibold, 600); color: rgb(31, 35, 40); font-family: -apple-system, BlinkMacSystemFont, &amp;quot;Segoe UI&amp;quot;, &amp;quot;Noto Sans&amp;quot;, Helvetica, Arial, sans-serif, &amp;quot;Apple Color Emoji&amp;quot;, &amp;quot;Segoe UI Emoji&amp;quot;; font-size: 16px; font-style: normal; font-variant-ligatures: normal; font-variant-caps: normal; letter-spacing: normal; orphans: 2; text-align: start; text-indent: 0px; text-transform: none; widows: 2; word-spacing: 0px; -webkit-text-stroke-width: 0px; white-space: normal; background-color: rgb(255, 255, 255); text-decoration-thickness: initial; text-decoration-style: initial; text-decoration-color: initial;&quot;&gt;Я, как&lt;/strong&gt;&lt;span style=&quot;color: rgb(31, 35, 40); font-family: -apple-system, BlinkMacSystemFont, &amp;quot;Segoe UI&amp;quot;, &amp;quot;Noto Sans&amp;quot;, Helvetica, Arial, sans-serif, &amp;quot;Apple Color Emoji&amp;quot;, &amp;quot;Segoe UI Emoji&amp;quot;; font-size: 16px; font-style: normal; font-variant-ligatures: normal; font-variant-caps: normal; font-weight: 400; letter-spacing: normal; orphans: 2; text-align: start; text-indent: 0px; text-transform: none; widows: 2; word-spacing: 0px; -webkit-text-stroke-width: 0px; white-space: normal; background-color: rgb(255, 255, 255); text-decoration-thickness: initial; text-decoration-style: initial; text-decoration-color: initial; display: inline !important; float: none;&quot;&gt;&lt;span&gt;&amp;nbsp;&lt;/span&gt;пользователь мобильного приложения ВКонтакте,&lt;span&gt;&amp;nbsp;&lt;/span&gt;&lt;/span&gt;&lt;strong style=&quot;box-sizing: border-box; font-weight: var(--base-text-weight-semibold, 600); color: rgb(31, 35, 40); font-family: -apple-system, BlinkMacSystemFont, &amp;quot;Segoe UI&amp;quot;, &amp;quot;Noto Sans&amp;quot;, Helvetica, Arial, sans-serif, &amp;quot;Apple Color Emoji&amp;quot;, &amp;quot;Segoe UI Emoji&amp;quot;; font-size: 16px; font-style: normal; font-variant-ligatures: normal; font-variant-caps: normal; letter-spacing: normal; orphans: 2; text-align: start; text-indent: 0px; text-transform: none; widows: 2; word-spacing: 0px; -webkit-text-stroke-width: 0px; white-space: normal; background-color: rgb(255, 255, 255); text-decoration-thickness: initial; text-decoration-style: initial; text-decoration-color: initial;&quot;&gt;хочу иметь возможность&lt;/strong&gt;&lt;span style=&quot;color: rgb(31, 35, 40); font-family: -apple-system, BlinkMacSystemFont, &amp;quot;Segoe UI&amp;quot;, &amp;quot;Noto Sans&amp;quot;, Helvetica, Arial, sans-serif, &amp;quot;Apple Color Emoji&amp;quot;, &amp;quot;Segoe UI Emoji&amp;quot;; font-size: 16px; font-style: normal; font-variant-ligatures: normal; font-variant-caps: normal; font-weight: 400; letter-spacing: normal; orphans: 2; text-align: start; text-indent: 0px; text-transform: none; widows: 2; word-spacing: 0px; -webkit-text-stroke-width: 0px; white-space: normal; background-color: rgb(255, 255, 255); text-decoration-thickness: initial; text-decoration-style: initial; text-decoration-color: initial; display: inline !important; float: none;&quot;&gt;&lt;span&gt;&amp;nbsp;&lt;/span&gt;отправлять стикеры,&lt;span&gt;&amp;nbsp;&lt;/span&gt;&lt;/span&gt;&lt;strong style=&quot;box-sizing: border-box; font-weight: var(--base-text-weight-semibold, 600); color: rgb(31, 35, 40); font-family: -apple-system, BlinkMacSystemFont, &amp;quot;Segoe UI&amp;quot;, &amp;quot;Noto Sans&amp;quot;, Helvetica, Arial, sans-serif, &amp;quot;Apple Color Emoji&amp;quot;, &amp;quot;Segoe UI Emoji&amp;quot;; font-size: 16px; font-style: normal; font-variant-ligatures: normal; font-variant-caps: normal; letter-spacing: normal; orphans: 2; text-align: start; text-indent: 0px; text-transform: none; widows: 2; word-spacing: 0px; -webkit-text-stroke-width: 0px; white-space: normal; background-color: rgb(255, 255, 255); text-decoration-thickness: initial; text-decoration-style: initial; text-decoration-color: initial;&quot;&gt;для того чтобы&lt;/strong&gt;&lt;span style=&quot;color: rgb(31, 35, 40); font-family: -apple-system, BlinkMacSystemFont, &amp;quot;Segoe UI&amp;quot;, &amp;quot;Noto Sans&amp;quot;, Helvetica, Arial, sans-serif, &amp;quot;Apple Color Emoji&amp;quot;, &amp;quot;Segoe UI Emoji&amp;quot;; font-size: 16px; font-style: normal; font-variant-ligatures: normal; font-variant-caps: normal; font-weight: 400; letter-spacing: normal; orphans: 2; text-align: start; text-indent: 0px; text-transform: none; widows: 2; word-spacing: 0px; -webkit-text-stroke-width: 0px; white-space: normal; background-color: rgb(255, 255, 255); text-decoration-thickness: initial; text-decoration-style: initial; text-decoration-color: initial; display: inline !important; float: none;&quot;&gt;&lt;span&gt;&amp;nbsp;&lt;/span&gt;быстрее отвечать на сообщения и передавать эмоции.&lt;/span&gt;" style="text;whiteSpace=wrap;html=1;" vertex="1" parent="1">
          <mxGeometry x="228" y="-75" width="560" height="80" as="geometry" />
        </mxCell>
      </root>
    </mxGraphModel>
  </diagram>
</mxfile>
